# xmcd
#
# Track frame offsets:
#	150
#	11337
#	22548
#	36813
#	52373
#	65674
#	79254
#	91100
#	101416
#	113385
#	125005
#	136151
#
# Disc length: 2001 seconds
#
# Revision: 0
# Processed by: cddbd v1.5.2PL0 Copyright (c) Steve Scherf et al.
# Submitted via: dBpowerAMP V4.0
#
DISCID=8d07cf0c
DTITLE=Conway Twitty - Pure Conway Twitty
DYEAR=2007
DGENRE=Country
TTITLE0=It's Only Make Believe
TTITLE1=Hello Darlin'
TTITLE2=You've Never Been This Far Before
TTITLE3=Touch The Hand
TTITLE4=After All The Good Is Gone
TTITLE5=The Games That Daddies Play
TTITLE6=I'm Not Through Loving You Yet
TTITLE7=(I Can't Believe) She Gives It All To Me
TTITLE8=She Needs Someone To Hold Her (When She Cries)
TTITLE9=To See An Angel Cry
TTITLE10=As Soon As I Hang Up The Phone
TTITLE11=Fifteen Years Ago
EXTD=
EXTT0=
EXTT1=
EXTT2=
EXTT3=
EXTT4=
EXTT5=
EXTT6=
EXTT7=
EXTT8=
EXTT9=
EXTT10=
EXTT11=
PLAYORDER=
